<svg width="597" height="602" viewBox="0 0 597 602" fill="none" xmlns="http://www.w3.org/2000/svg">
<rect x="105" y="113" width="33" height="253" fill="white"/>
<rect x="138" y="113" width="351" height="29" fill="white"/>
<rect x="242.716" y="328.192" width="126.283" height="29" transform="rotate(-44.1101 242.716 328.192)" fill="white"/>
<rect x="263.751" y="239.753" width="126.283" height="29" transform="rotate(45.001 263.751 239.753)" fill="white"/>
<rect x="298.476" y="40.9106" width="299.89" height="32.5358" transform="rotate(31.7013 298.476 40.9106)" fill="white"/>
<rect x="42" y="199.693" width="301.595" height="32.5358" transform="rotate(-31.9464 42 199.693)" fill="white"/>
<rect x="57" y="529" width="481" height="29" fill="white"/>
<rect x="460" y="142" width="29" height="224" fill="white"/>
<rect x="42" y="254" width="63" height="32" fill="white"/>
<rect x="489" y="254" width="65" height="32" fill="white"/>
<rect x="42" y="199" width="31" height="359" fill="white"/>
<rect x="523" y="199" width="31" height="359" fill="white"/>
<rect x="72.9839" y="329" width="284.435" height="30.385" transform="rotate(31.7383 72.9839 329)" fill="white"/>
<rect x="72.9839" y="329" width="284.435" height="30.385" transform="rotate(31.7383 72.9839 329)" fill="white"/>
<rect x="40" y="538.076" width="196.406" height="30.385" transform="rotate(-38.5029 40 538.076)" fill="white"/>
<rect x="40" y="538.076" width="196.406" height="30.385" transform="rotate(-38.5029 40 538.076)" fill="white"/>
<rect x="404.062" y="415" width="196.406" height="30.385" transform="rotate(38.8553 404.062 415)" fill="white"/>
<rect x="404.062" y="415" width="196.406" height="30.385" transform="rotate(38.8553 404.062 415)" fill="white"/>
<rect x="282" y="478.251" width="284.435" height="30.385" transform="rotate(-31.8869 282 478.251)" fill="white"/>
<rect x="40" y="4.11182" width="66.25" height="30" rx="3" fill="white"/>
<rect x="40.5" y="4.61182" width="65.25" height="29" rx="2.5" stroke="black" stroke-opacity="0.2"/>
<path d="M51.3438 16.1118C51.2969 15.716 51.1068 15.4087 50.7734 15.1899C50.4401 14.9712 50.0313 14.8618 49.5469 14.8618C49.1927 14.8618 48.8828 14.9191 48.6172 15.0337C48.3542 15.1483 48.1484 15.3058 48 15.5063C47.8542 15.7069 47.7813 15.9347 47.7813 16.1899C47.7813 16.4035 47.832 16.5871 47.9336 16.7407C48.0378 16.8918 48.1706 17.0181 48.332 17.1196C48.4935 17.2186 48.6628 17.3006 48.8398 17.3657C49.0169 17.4282 49.1797 17.479 49.3281 17.5181L50.1406 17.7368C50.349 17.7915 50.5807 17.867 50.8359 17.9634C51.0938 18.0597 51.3398 18.1912 51.5742 18.3579C51.8112 18.522 52.0065 18.7329 52.1602 18.9907C52.3138 19.2485 52.3906 19.5649 52.3906 19.9399C52.3906 20.3722 52.2773 20.7629 52.0508 21.1118C51.8268 21.4608 51.4987 21.7381 51.0664 21.9438C50.6367 22.1496 50.1146 22.2524 49.5 22.2524C48.9271 22.2524 48.431 22.16 48.0117 21.9751C47.5951 21.7902 47.2669 21.5324 47.0273 21.2017C46.7904 20.8709 46.6563 20.4868 46.625 20.0493H47.625C47.651 20.3514 47.7526 20.6014 47.9297 20.7993C48.1094 20.9946 48.3359 21.1405 48.6094 21.2368C48.8854 21.3306 49.1823 21.3774 49.5 21.3774C49.8698 21.3774 50.2018 21.3175 50.4961 21.1978C50.7904 21.0754 51.0234 20.9061 51.1953 20.6899C51.3672 20.4712 51.4531 20.216 51.4531 19.9243C51.4531 19.6587 51.3789 19.4425 51.2305 19.2759C51.082 19.1092 50.8867 18.9738 50.6445 18.8696C50.4023 18.7655 50.1406 18.6743 49.8594 18.5962L48.875 18.3149C48.25 18.1353 47.7552 17.8787 47.3906 17.5454C47.026 17.2121 46.8438 16.7759 46.8438 16.2368C46.8438 15.7889 46.9648 15.3983 47.207 15.0649C47.4518 14.729 47.7799 14.4686 48.1914 14.2837C48.6055 14.0962 49.0677 14.0024 49.5781 14.0024C50.0938 14.0024 50.5521 14.0949 50.9531 14.2798C51.3542 14.4621 51.6719 14.7121 51.9062 15.0298C52.1432 15.3475 52.2682 15.7082 52.2813 16.1118H51.3438ZM56.374 22.2368C55.7959 22.2368 55.2972 22.1092 54.8779 21.854C54.4613 21.5962 54.1396 21.2368 53.9131 20.7759C53.6891 20.3123 53.5771 19.7733 53.5771 19.1587C53.5771 18.5441 53.6891 18.0024 53.9131 17.5337C54.1396 17.0623 54.4548 16.6951 54.8584 16.4321C55.2646 16.1665 55.7386 16.0337 56.2803 16.0337C56.5928 16.0337 56.9014 16.0858 57.2061 16.1899C57.5107 16.2941 57.7881 16.4634 58.0381 16.6978C58.2881 16.9295 58.4873 17.2368 58.6357 17.6196C58.7842 18.0024 58.8584 18.4738 58.8584 19.0337V19.4243H54.2334V18.6274H57.9209C57.9209 18.2889 57.8532 17.9868 57.7178 17.7212C57.585 17.4556 57.3949 17.2459 57.1475 17.0923C56.9027 16.9386 56.6136 16.8618 56.2803 16.8618C55.9131 16.8618 55.5954 16.953 55.3271 17.1353C55.0615 17.3149 54.8571 17.5493 54.7139 17.8384C54.5706 18.1274 54.499 18.4373 54.499 18.7681V19.2993C54.499 19.7524 54.5771 20.1366 54.7334 20.4517C54.8923 20.7642 55.1123 21.0024 55.3936 21.1665C55.6748 21.328 56.0016 21.4087 56.374 21.4087C56.6162 21.4087 56.835 21.3748 57.0303 21.3071C57.2282 21.2368 57.3988 21.1326 57.542 20.9946C57.6852 20.854 57.7959 20.6795 57.874 20.4712L58.7646 20.7212C58.6709 21.0233 58.5133 21.2889 58.292 21.5181C58.0706 21.7446 57.7972 21.9217 57.4717 22.0493C57.1462 22.1743 56.7803 22.2368 56.374 22.2368ZM62.6982 22.2368C62.1357 22.2368 61.6514 22.104 61.2451 21.8384C60.8389 21.5728 60.5264 21.2069 60.3076 20.7407C60.0889 20.2746 59.9795 19.742 59.9795 19.1431C59.9795 18.5337 60.0915 17.9959 60.3154 17.5298C60.542 17.061 60.8571 16.6951 61.2607 16.4321C61.667 16.1665 62.141 16.0337 62.6826 16.0337C63.1045 16.0337 63.4847 16.1118 63.8232 16.2681C64.1618 16.4243 64.4391 16.6431 64.6553 16.9243C64.8714 17.2056 65.0055 17.5337 65.0576 17.9087H64.1357C64.0654 17.6353 63.9092 17.3931 63.667 17.1821C63.4274 16.9686 63.1045 16.8618 62.6982 16.8618C62.3389 16.8618 62.0238 16.9556 61.7529 17.1431C61.4847 17.328 61.2751 17.5897 61.124 17.9282C60.9756 18.2642 60.9014 18.6587 60.9014 19.1118C60.9014 19.5754 60.9743 19.979 61.1201 20.3228C61.2686 20.6665 61.4769 20.9334 61.7451 21.1235C62.016 21.3136 62.3337 21.4087 62.6982 21.4087C62.9378 21.4087 63.1553 21.367 63.3506 21.2837C63.5459 21.2004 63.7113 21.0806 63.8467 20.9243C63.9821 20.7681 64.0785 20.5806 64.1357 20.3618H65.0576C65.0055 20.716 64.8766 21.035 64.6709 21.3188C64.4678 21.6001 64.1982 21.8241 63.8623 21.9907C63.529 22.1548 63.141 22.2368 62.6982 22.2368ZM69.0146 16.1118V16.8931H65.9053V16.1118H69.0146ZM66.8115 14.6743H67.7334V20.3931C67.7334 20.6535 67.7712 20.8488 67.8467 20.979C67.9248 21.1066 68.0238 21.1925 68.1436 21.2368C68.266 21.2785 68.3949 21.2993 68.5303 21.2993C68.6318 21.2993 68.7152 21.2941 68.7803 21.2837C68.8454 21.2707 68.8975 21.2603 68.9365 21.2524L69.124 22.0806C69.0615 22.104 68.9743 22.1274 68.8623 22.1509C68.7503 22.1769 68.6084 22.1899 68.4365 22.1899C68.1761 22.1899 67.9209 22.134 67.6709 22.022C67.4235 21.91 67.2178 21.7394 67.0537 21.5103C66.8923 21.2811 66.8115 20.992 66.8115 20.6431V14.6743ZM70.4014 22.1118V16.1118H71.3232V22.1118H70.4014ZM70.8701 15.1118C70.6904 15.1118 70.5355 15.0506 70.4053 14.9282C70.2777 14.8058 70.2139 14.6587 70.2139 14.4868C70.2139 14.3149 70.2777 14.1678 70.4053 14.0454C70.5355 13.923 70.6904 13.8618 70.8701 13.8618C71.0498 13.8618 71.2035 13.923 71.3311 14.0454C71.4613 14.1678 71.5264 14.3149 71.5264 14.4868C71.5264 14.6587 71.4613 14.8058 71.3311 14.9282C71.2035 15.0506 71.0498 15.1118 70.8701 15.1118ZM75.4492 22.2368C74.9076 22.2368 74.4323 22.1079 74.0234 21.8501C73.6172 21.5923 73.2995 21.2316 73.0703 20.7681C72.8438 20.3045 72.7305 19.7629 72.7305 19.1431C72.7305 18.5181 72.8438 17.9725 73.0703 17.5063C73.2995 17.0402 73.6172 16.6782 74.0234 16.4204C74.4323 16.1626 74.9076 16.0337 75.4492 16.0337C75.9909 16.0337 76.4648 16.1626 76.8711 16.4204C77.2799 16.6782 77.5977 17.0402 77.8242 17.5063C78.0534 17.9725 78.168 18.5181 78.168 19.1431C78.168 19.7629 78.0534 20.3045 77.8242 20.7681C77.5977 21.2316 77.2799 21.5923 76.8711 21.8501C76.4648 22.1079 75.9909 22.2368 75.4492 22.2368ZM75.4492 21.4087C75.8607 21.4087 76.1992 21.3032 76.4648 21.0923C76.7305 20.8813 76.9271 20.604 77.0547 20.2603C77.1823 19.9165 77.2461 19.5441 77.2461 19.1431C77.2461 18.742 77.1823 18.3683 77.0547 18.022C76.9271 17.6756 76.7305 17.3957 76.4648 17.1821C76.1992 16.9686 75.8607 16.8618 75.4492 16.8618C75.0378 16.8618 74.6992 16.9686 74.4336 17.1821C74.168 17.3957 73.9714 17.6756 73.8438 18.022C73.7161 18.3683 73.6523 18.742 73.6523 19.1431C73.6523 19.5441 73.7161 19.9165 73.8438 20.2603C73.9714 20.604 74.168 20.8813 74.4336 21.0923C74.6992 21.3032 75.0378 21.4087 75.4492 21.4087ZM80.4971 18.5024V22.1118H79.5752V16.1118H80.4658V17.0493H80.5439C80.6846 16.7446 80.8981 16.4998 81.1846 16.3149C81.471 16.1274 81.8408 16.0337 82.2939 16.0337C82.7002 16.0337 83.0557 16.117 83.3604 16.2837C83.665 16.4478 83.902 16.6978 84.0713 17.0337C84.2406 17.367 84.3252 17.7889 84.3252 18.2993V22.1118H83.4033V18.3618C83.4033 17.8905 83.2809 17.5233 83.0361 17.2603C82.7913 16.9946 82.4554 16.8618 82.0283 16.8618C81.734 16.8618 81.471 16.9256 81.2393 17.0532C81.0101 17.1808 80.8291 17.367 80.6963 17.6118C80.5635 17.8566 80.4971 18.1535 80.4971 18.5024ZM91.9004 14.1118V22.1118H90.9316V15.1274H90.8848L88.9316 16.4243V15.4399L90.9316 14.1118H91.9004ZM96.8105 22.2212C96.222 22.2212 95.7207 22.061 95.3066 21.7407C94.8926 21.4178 94.5762 20.9504 94.3574 20.3384C94.1387 19.7238 94.0293 18.9816 94.0293 18.1118C94.0293 17.2472 94.1387 16.509 94.3574 15.897C94.5788 15.2824 94.8965 14.8136 95.3105 14.4907C95.7272 14.1652 96.2272 14.0024 96.8105 14.0024C97.3939 14.0024 97.8926 14.1652 98.3066 14.4907C98.7233 14.8136 99.041 15.2824 99.2598 15.897C99.4811 16.509 99.5918 17.2472 99.5918 18.1118C99.5918 18.9816 99.4824 19.7238 99.2637 20.3384C99.0449 20.9504 98.7285 21.4178 98.3145 21.7407C97.9004 22.061 97.3991 22.2212 96.8105 22.2212ZM96.8105 21.3618C97.3939 21.3618 97.847 21.0806 98.1699 20.5181C98.4928 19.9556 98.6543 19.1535 98.6543 18.1118C98.6543 17.4191 98.5801 16.8293 98.4316 16.3423C98.2858 15.8553 98.0749 15.4842 97.7988 15.229C97.5254 14.9738 97.196 14.8462 96.8105 14.8462C96.2324 14.8462 95.7806 15.1313 95.4551 15.7017C95.1296 16.2694 94.9668 17.0728 94.9668 18.1118C94.9668 18.8045 95.0397 19.3931 95.1855 19.8774C95.3314 20.3618 95.541 20.7303 95.8145 20.9829C96.0905 21.2355 96.4225 21.3618 96.8105 21.3618Z" fill="black"/>
</svg>
