<svg width="462" height="478" viewBox="0 0 462 478" fill="none" xmlns="http://www.w3.org/2000/svg">
<path d="M308.029 3.44328C306.065 0.113514 301.773 -0.993397 298.443 0.970926C295.114 2.93525 294.007 7.22695 295.971 10.5567L308.029 3.44328ZM295.971 10.5567L377.971 149.557L390.029 142.443L308.029 3.44328L295.971 10.5567Z" fill="white"/>
<path d="M179.01 10.5887C180.992 7.26948 179.908 2.97194 176.589 0.989933C173.269 -0.992077 168.972 0.091986 166.99 3.41125L179.01 10.5887ZM166.99 3.41125L83.9899 142.411L96.0101 149.589L179.01 10.5887L166.99 3.41125Z" fill="white"/>
<path d="M179.01 10.5887C180.992 7.26948 179.908 2.97194 176.589 0.989933C173.269 -0.992077 168.972 0.091986 166.99 3.41125L179.01 10.5887ZM166.99 3.41125L83.9899 142.411L96.0101 149.589L179.01 10.5887L166.99 3.41125Z" fill="white"/>
<path d="M66.0882 328.107C66.6998 331.925 70.2901 334.523 74.1074 333.912C77.9247 333.3 80.5235 329.71 79.9118 325.893L66.0882 328.107ZM79.9118 325.893L50.9118 144.893L37.0882 147.107L66.0882 328.107L79.9118 325.893Z" fill="white"/>
<path d="M380.101 330.813C379.446 334.623 382.003 338.243 385.813 338.899C389.623 339.554 393.243 336.997 393.899 333.187L380.101 330.813ZM393.899 333.187L425.899 147.187L412.101 144.813L380.101 330.813L393.899 333.187Z" fill="white"/>
<path d="M398.942 302.4C399.439 298.566 396.734 295.055 392.9 294.558C389.066 294.061 385.555 296.766 385.058 300.6L398.942 302.4ZM229.616 369.179L229.626 362.179L229.616 362.179L229.616 369.179ZM296.422 369.269L296.413 376.269L296.438 376.269L296.464 376.268L296.422 369.269ZM121.5 369.179L121.5 362.179L121.5 362.179L121.5 369.179ZM108.5 369.179L107.364 376.086L107.928 376.179L108.5 376.179L108.5 369.179ZM107.704 369.048L106.569 375.955L107.704 369.048ZM389.968 317.175L383.026 316.275L389.968 317.175ZM384.416 339.165L377.879 336.661L384.416 339.165ZM372.339 360.705L377.613 365.307L372.339 360.705ZM354.358 361.924L296.381 362.269L296.464 376.268L354.441 375.924L354.358 361.924ZM296.432 362.269L229.626 362.179L229.607 376.179L296.413 376.269L296.432 362.269ZM368.394 354.579L367.065 356.102L377.613 365.307L378.942 363.784L368.394 354.579ZM385.058 300.6L383.026 316.275L396.91 318.075L398.942 302.4L385.058 300.6ZM377.879 336.661L375.611 342.583L388.685 347.59L390.953 341.668L377.879 336.661ZM229.616 362.179L121.5 362.179L121.5 376.179L229.616 376.179L229.616 362.179ZM81.8982 335.811L76.8982 306.811L63.1018 309.189L68.1018 338.189L81.8982 335.811ZM67.4121 334.189L68.1018 338.189L81.8982 335.811L81.2086 331.811L67.4121 334.189ZM121.5 362.179L108.5 362.179L108.5 376.179L121.5 376.179L121.5 362.179ZM109.636 362.272L108.84 362.141L106.569 375.955L107.364 376.086L109.636 362.272ZM67.3366 333.605C69.1955 355.03 85.3479 372.466 106.569 375.955L108.84 362.141C93.9349 359.69 82.5898 347.443 81.2842 332.395L67.3366 333.605ZM383.026 316.275C382.122 323.25 380.394 330.093 377.879 336.661L390.953 341.668C393.864 334.067 395.864 326.147 396.91 318.075L383.026 316.275ZM378.942 363.784C383.117 359.001 386.415 353.519 388.685 347.59L375.611 342.583C373.929 346.975 371.486 351.036 368.394 354.579L378.942 363.784ZM354.441 375.924C363.33 375.871 371.769 372.005 377.613 365.307L367.065 356.102C363.86 359.775 359.232 361.895 354.358 361.924L354.441 375.924Z" fill="white"/>
<path d="M455 146L7.00002 146" stroke="white" stroke-width="14" stroke-linecap="round"/>
<path d="M154 308L154 200" stroke="white" stroke-width="14" stroke-linecap="round"/>
<path d="M308 308L308 200" stroke="white" stroke-width="14" stroke-linecap="round"/>
<path d="M231 308L231 200" stroke="white" stroke-width="14" stroke-linecap="round"/>
</svg>
