<svg width="517" height="522" viewBox="0 0 517 522" fill="none" xmlns="http://www.w3.org/2000/svg">
<rect x="65" y="73" width="33" height="253" fill="white"/>
<rect x="98" y="73" width="351" height="29" fill="white"/>
<rect x="202.716" y="288.192" width="126.283" height="29" transform="rotate(-44.1101 202.716 288.192)" fill="white"/>
<rect x="223.751" y="199.753" width="126.283" height="29" transform="rotate(45.001 223.751 199.753)" fill="white"/>
<rect x="258.476" y="0.910645" width="299.89" height="32.5358" transform="rotate(31.7013 258.476 0.910645)" fill="white"/>
<rect x="2" y="159.693" width="301.595" height="32.5358" transform="rotate(-31.9464 2 159.693)" fill="white"/>
<rect x="17" y="489" width="481" height="29" fill="white"/>
<rect x="420" y="102" width="29" height="224" fill="white"/>
<rect x="2" y="214" width="63" height="32" fill="white"/>
<rect x="449" y="214" width="65" height="32" fill="white"/>
<rect x="2" y="159" width="31" height="359" fill="white"/>
<rect x="483" y="159" width="31" height="359" fill="white"/>
<rect x="32.9839" y="289" width="284.435" height="30.385" transform="rotate(31.7383 32.9839 289)" fill="white"/>
<rect x="32.9839" y="289" width="284.435" height="30.385" transform="rotate(31.7383 32.9839 289)" fill="white"/>
<rect y="498.076" width="196.406" height="30.385" transform="rotate(-38.5029 0 498.076)" fill="white"/>
<rect y="498.076" width="196.406" height="30.385" transform="rotate(-38.5029 0 498.076)" fill="white"/>
<rect x="364.062" y="375" width="196.406" height="30.385" transform="rotate(38.8553 364.062 375)" fill="white"/>
<rect x="364.062" y="375" width="196.406" height="30.385" transform="rotate(38.8553 364.062 375)" fill="white"/>
<rect x="242" y="438.251" width="284.435" height="30.385" transform="rotate(-31.8869 242 438.251)" fill="white"/>
</svg>
