<svg width="370" height="208" viewBox="0 0 370 208" fill="none" xmlns="http://www.w3.org/2000/svg">
<path d="M73.32 116V81.728H100.44V116H93.192V87.776H80.568V116H73.32ZM130.062 116L127.566 107.84H115.086L112.59 116H104.766L116.862 81.584H125.742L137.886 116H130.062ZM123.342 93.776C123.182 93.232 122.974 92.544 122.718 91.712C122.462 90.88 122.206 90.032 121.95 89.168C121.694 88.304 121.486 87.552 121.326 86.912C121.166 87.552 120.942 88.352 120.654 89.312C120.398 90.24 120.142 91.136 119.886 92C119.662 92.832 119.486 93.424 119.358 93.776L116.91 101.744H125.838L123.342 93.776ZM159.122 105.968C158.162 108.144 157.138 110.032 156.05 111.632C154.994 113.2 153.634 114.4 151.97 115.232C150.306 116.064 148.13 116.48 145.442 116.48C144.61 116.48 143.698 116.416 142.706 116.288C141.714 116.16 140.802 115.984 139.97 115.76V109.52C140.738 109.84 141.586 110.064 142.514 110.192C143.442 110.32 144.306 110.384 145.106 110.384C146.162 110.384 147.01 110.208 147.65 109.856C148.322 109.504 148.85 109.024 149.234 108.416C149.65 107.776 149.986 107.088 150.242 106.352L138.386 81.728H146.066L152.45 96.56C152.61 96.88 152.802 97.296 153.026 97.808C153.25 98.32 153.474 98.848 153.698 99.392C153.922 99.936 154.098 100.416 154.226 100.832H154.466C154.594 100.448 154.754 99.984 154.946 99.44C155.17 98.864 155.394 98.288 155.618 97.712C155.874 97.104 156.098 96.576 156.29 96.128L162.242 81.728H169.73L159.122 105.968ZM201.99 116H193.734L181.302 98.624V116H174.054V81.728H181.302V98.336L193.59 81.728H201.318L188.838 98.192L201.99 116ZM216.96 81.728C220 81.728 222.544 82.016 224.592 82.592C226.672 83.136 228.224 84.048 229.248 85.328C230.304 86.576 230.832 88.272 230.832 90.416C230.832 91.696 230.624 92.864 230.208 93.92C229.792 94.976 229.184 95.84 228.384 96.512C227.616 97.184 226.672 97.616 225.552 97.808V98.048C226.704 98.272 227.744 98.672 228.672 99.248C229.6 99.824 230.336 100.656 230.88 101.744C231.424 102.832 231.696 104.272 231.696 106.064C231.696 108.144 231.184 109.936 230.16 111.44C229.168 112.912 227.728 114.048 225.84 114.848C223.952 115.616 221.712 116 219.12 116H206.304V81.728H216.96ZM217.776 95.312C219.888 95.312 221.344 94.976 222.144 94.304C222.976 93.632 223.392 92.656 223.392 91.376C223.392 90.064 222.912 89.12 221.952 88.544C220.992 87.968 219.472 87.68 217.392 87.68H213.552V95.312H217.776ZM213.552 101.072V110H218.304C220.48 110 222 109.584 222.864 108.752C223.728 107.888 224.16 106.752 224.16 105.344C224.16 104.48 223.968 103.728 223.584 103.088C223.232 102.448 222.608 101.952 221.712 101.6C220.816 101.248 219.6 101.072 218.064 101.072H213.552ZM265.674 116H258.426V87.776H250.026C249.834 89.248 249.626 90.848 249.402 92.576C249.21 94.304 248.986 96.064 248.73 97.856C248.506 99.616 248.266 101.296 248.01 102.896C247.754 104.464 247.498 105.856 247.242 107.072C246.826 109.056 246.266 110.752 245.562 112.16C244.89 113.568 243.946 114.64 242.73 115.376C241.546 116.112 239.994 116.48 238.074 116.48C237.434 116.48 236.826 116.432 236.25 116.336C235.674 116.24 235.13 116.112 234.618 115.952V110C235.034 110.128 235.434 110.24 235.818 110.336C236.234 110.432 236.682 110.48 237.162 110.48C237.802 110.48 238.33 110.272 238.746 109.856C239.162 109.44 239.53 108.736 239.85 107.744C240.17 106.72 240.49 105.312 240.81 103.52C240.97 102.752 241.162 101.664 241.386 100.256C241.61 98.816 241.866 97.136 242.154 95.216C242.474 93.264 242.794 91.152 243.114 88.88C243.434 86.576 243.738 84.192 244.026 81.728H265.674V116ZM288.864 87.296C287.488 87.296 286.256 87.568 285.168 88.112C284.112 88.656 283.216 89.44 282.48 90.464C281.744 91.456 281.184 92.672 280.8 94.112C280.448 95.552 280.272 97.168 280.272 98.96C280.272 101.392 280.56 103.472 281.136 105.2C281.744 106.896 282.688 108.192 283.968 109.088C285.248 109.984 286.88 110.432 288.864 110.432C290.272 110.432 291.664 110.272 293.04 109.952C294.448 109.632 295.968 109.184 297.6 108.608V114.704C296.096 115.312 294.608 115.76 293.136 116.048C291.664 116.336 290.016 116.48 288.192 116.48C284.672 116.48 281.76 115.76 279.456 114.32C277.184 112.848 275.504 110.8 274.416 108.176C273.328 105.52 272.784 102.432 272.784 98.912C272.784 96.32 273.136 93.952 273.84 91.808C274.544 89.632 275.568 87.76 276.912 86.192C278.288 84.624 279.968 83.408 281.952 82.544C283.968 81.68 286.272 81.248 288.864 81.248C290.56 81.248 292.256 81.472 293.952 81.92C295.68 82.336 297.328 82.912 298.896 83.648L296.544 89.552C295.264 88.944 293.968 88.416 292.656 87.968C291.376 87.52 290.112 87.296 288.864 87.296Z" fill="white"/>
<path d="M368.5 104C368.5 131.936 348.342 157.533 315.08 176.232C281.865 194.904 235.878 206.5 185 206.5C134.122 206.5 88.1353 194.904 54.9203 176.232C21.6581 157.533 1.5 131.936 1.5 104C1.5 76.0642 21.6581 50.4672 54.9203 31.7684C88.1353 13.0963 134.122 1.5 185 1.5C235.878 1.5 281.865 13.0963 315.08 31.7684C348.342 50.4672 368.5 76.0642 368.5 104Z" stroke="white" stroke-width="3"/>
<line x1="185" y1="116" x2="185" y2="152" stroke="white" stroke-width="2"/>
<path d="M146.761 154.823C146.387 155.229 146.413 155.862 146.82 156.236C147.226 156.61 147.859 156.583 148.233 156.177L146.761 154.823ZM159.731 143.83L158.982 144.493L159.731 143.83ZM158.246 143.816L157.51 143.138L158.246 143.816ZM171.248 155.337L160.48 143.167L158.982 144.493L169.751 156.663L171.248 155.337ZM157.51 143.138L146.761 154.823L148.233 156.177L158.982 144.493L157.51 143.138ZM160.48 143.167C159.694 142.279 158.313 142.266 157.51 143.138L158.982 144.493L158.982 144.493L160.48 143.167Z" fill="white"/>
<path d="M222.277 156.191C222.658 156.59 223.291 156.606 223.691 156.225C224.09 155.844 224.106 155.211 223.725 154.811L222.277 156.191ZM212.29 144.261L213.014 143.571L212.29 144.261ZM200.762 157.648L211.566 144.951L210.043 143.655L199.238 156.352L200.762 157.648ZM211.566 144.951L222.277 156.191L223.725 154.811L213.014 143.571L211.566 144.951ZM211.566 144.951L211.566 144.951L213.014 143.571C212.195 142.712 210.812 142.751 210.043 143.655L211.566 144.951Z" fill="white"/>
<path d="M152.544 195.71C152.384 196.238 152.683 196.797 153.212 196.956C153.74 197.116 154.298 196.817 154.458 196.289L152.544 195.71ZM160.925 174.731L161.168 173.761L160.925 174.731ZM159.725 175.411L158.768 175.122L159.725 175.411ZM164.242 174.53L161.168 173.761L160.682 175.701L163.757 176.47L164.242 174.53ZM158.768 175.122L152.544 195.71L154.458 196.289L160.682 175.701L158.768 175.122ZM161.168 173.761C160.133 173.502 159.077 174.101 158.768 175.122L160.682 175.701L160.682 175.701L161.168 173.761Z" fill="white"/>
<path d="M216.051 195.316C216.226 195.84 216.792 196.123 217.316 195.949C217.84 195.774 218.123 195.208 217.949 194.684L216.051 195.316ZM210.828 176.484L211.777 176.168L210.828 176.484ZM206.851 177.936L209.879 176.8L209.177 174.928L206.149 176.064L206.851 177.936ZM209.879 176.8L216.051 195.316L217.949 194.684L211.777 176.168L209.879 176.8ZM209.879 176.8L209.879 176.8L211.777 176.168C211.418 175.092 210.239 174.53 209.177 174.928L209.879 176.8Z" fill="white"/>
<path d="M148.055 180.683C147.88 181.207 148.163 181.773 148.687 181.948C149.211 182.123 149.777 181.84 149.952 181.316L148.055 180.683ZM157.035 160.515L157.482 159.621L157.035 160.515ZM155.639 161.093L154.69 160.777L155.639 161.093ZM165.447 163.606L157.482 159.621L156.588 161.409L164.553 165.394L165.447 163.606ZM154.69 160.777L148.055 180.683L149.952 181.316L156.588 161.409L154.69 160.777ZM157.482 159.621C156.394 159.076 155.075 159.622 154.69 160.777L156.588 161.409L156.588 161.409L157.482 159.621Z" fill="white"/>
<path d="M220.554 180.823C220.732 181.346 221.3 181.625 221.823 181.446C222.346 181.268 222.625 180.7 222.446 180.177L220.554 180.823ZM213.476 160.512L213.029 159.617L213.476 160.512ZM214.87 161.083L213.924 161.406L214.87 161.083ZM205.947 165.394L213.924 161.406L213.029 159.617L205.053 163.606L205.947 165.394ZM213.924 161.406L220.554 180.823L222.446 180.177L215.816 160.76L213.924 161.406ZM213.924 161.406L213.924 161.406L215.816 160.76C215.425 159.614 214.112 159.076 213.029 159.617L213.924 161.406Z" fill="white"/>
<path d="M196.999 186.5C202.499 183 203.999 180 203.999 172C203.999 161.507 195.492 153 184.999 153C174.505 153 165.999 161.507 165.999 172C165.5 180 169 186 173 186" stroke="white" stroke-linecap="round"/>
<path d="M173.499 186V186C173.499 179.043 178.157 173.5 185.01 173.5C191.795 173.5 196.448 179.438 196.509 186.363C193.692 191.078 192.615 194.087 192.509 198.284C191.868 198.014 191.517 197.759 191.275 197.538C191.146 197.419 191.046 197.309 190.936 197.188C190.904 197.153 190.871 197.116 190.836 197.079C190.687 196.917 190.515 196.742 190.277 196.584C189.798 196.264 189.135 196.067 187.979 195.97C186.823 195.874 185.115 195.875 182.498 196C181.081 195.946 180.068 196.143 179.326 196.476C178.572 196.815 178.131 197.28 177.84 197.695C177.72 197.866 177.625 198.032 177.552 198.158C177.54 198.179 177.528 198.199 177.517 198.218C177.517 198.218 177.517 198.218 177.517 198.218C177.7 194.529 176.687 192.257 175.614 190.49C175.384 190.113 175.152 189.757 174.933 189.422C174.893 189.362 174.854 189.302 174.815 189.242C174.56 188.852 174.329 188.491 174.132 188.133C173.74 187.424 173.499 186.759 173.499 186Z" stroke="white" stroke-linecap="round"/>
<circle cx="189.5" cy="185.5" r="2.5" fill="white"/>
<circle cx="189.5" cy="185.5" r="2.5" fill="white"/>
<circle cx="180.5" cy="185.5" r="2.5" fill="white"/>
<circle cx="180.5" cy="185.5" r="2.5" fill="white"/>
</svg>
