<?xml version="1.0" ?><svg xmlns="http://www.w3.org/2000/svg" xmlns:xlink="http://www.w3.org/1999/xlink" version="1.0" viewBox="0 0 48 48" enable-background="new 0 0 48 48" xml:space="preserve"><g id="Layer_1"/><g id="_x37__x5F_PiggyBank"><g><path d="M44,17c-0.553,0-1,0.448-1,1v2c0,1.324-0.867,2.437-2.059,2.834C40.353,16.763,35.224,12,29,12h-1.351    C27.867,11.544,28,11.039,28,10.5C28,8.57,26.43,7,24.5,7S21,8.57,21,10.5c0,0.539,0.133,1.044,0.351,1.5h-1.452    C19.434,9.721,17.414,8,15,8h-1c-0.552,0-1,0.448-1,1v4.629C10.23,15.238,8.2,17.912,7.399,21H4c-0.552,0-1,0.448-1,1v6    c0,0.553,0.448,1,1,1h4.088c0.869,1.899,2.207,3.524,3.912,4.748V40c0,0.553,0.448,1,1,1h5c0.552,0,1-0.447,1-1v-3h10    c0.334,0,0.667-0.018,1-0.045V40c0,0.553,0.447,1,1,1h5c0.552,0,1-0.447,1-1l0.001-7.057c2.322-2.077,3.72-4.949,3.951-8.04    C43.255,24.457,45,22.431,45,20v-2C45,17.448,44.553,17,44,17z M23,10.5C23,9.673,23.673,9,24.5,9S26,9.673,26,10.5    S25.327,12,24.5,12S23,11.327,23,10.5z M35.363,31.712C35.133,31.902,35,32.185,35,32.483V39h-3v-3    c0-0.037-0.017-0.069-0.021-0.105c0.007-0.085,0.021-0.169,0.005-0.257c-0.101-0.543-0.623-0.907-1.164-0.803    C30.223,34.944,29.61,35,29,35H19c-0.305,0-0.606-0.014-0.904-0.041c-0.462-0.044-0.854,0.234-1.009,0.64    c-0.008,0.019-0.01,0.039-0.017,0.058c-0.022,0.068-0.054,0.132-0.061,0.206c-0.002,0.022,0.007,0.041,0.007,0.062    C17.013,35.952,17,35.974,17,36v3h-3v-5.781c0-0.362-0.195-0.687-0.496-0.862c-1.72-1.135-3.077-2.81-3.822-4.72    C9.532,27.253,9.163,27,8.75,27H5v-4h3c0.02,0,0.037-0.01,0.057-0.011C8.099,22.994,8.141,23,8.183,23    c0.474,0,0.894-0.337,0.982-0.819c0.557-3.032,2.535-5.683,5.29-7.091c0.384-0.197,0.578-0.607,0.529-1.011    C14.986,14.051,15,14.028,15,14v-4c1.654,0,3,1.346,3,3c0,0.552,0.448,1,1,1h10c5.514,0,10,4.486,10,10    C39,26.994,37.675,29.805,35.363,31.712z"/><path d="M15,19h-1c-0.552,0-1,0.448-1,1v2c0,0.552,0.448,1,1,1h1c0.552,0,1-0.448,1-1v-2C16,19.448,15.552,19,15,19z"/><path d="M27,15h-5c-0.552,0-1,0.448-1,1s0.448,1,1,1h5c0.553,0,1-0.448,1-1S27.553,15,27,15z"/></g></g></svg>